<?xml version="1.0" encoding="UTF-8" standalone="no"?>
<svg
   xmlns:dc="http://purl.org/dc/elements/1.1/"
   xmlns:cc="http://creativecommons.org/ns#"
   xmlns:rdf="http://www.w3.org/1999/02/22-rdf-syntax-ns#"
   xmlns:svg="http://www.w3.org/2000/svg"
   xmlns="http://www.w3.org/2000/svg"
   viewBox="0 0 644.0645 501.84497"
   height="501.84497"
   width="644.06451"
   xml:space="preserve"
   id="svg2"
   version="1.1"><metadata
     id="metadata8"><rdf:RDF><cc:Work
         rdf:about=""><dc:format>image/svg+xml</dc:format><dc:type
           rdf:resource="http://purl.org/dc/dcmitype/StillImage" /><dc:title></dc:title></cc:Work></rdf:RDF></metadata><defs
     id="defs6"><clipPath
       id="clipPath36"
       clipPathUnits="userSpaceOnUse"><path
         id="path34"
         d="M 0,0 H 841.89 V 595.276 H 0 Z" /></clipPath></defs><g
     transform="matrix(1.3333333,0,0,-1.3333333,-237.33461,644.06448)"
     id="g10"><path
       id="path12"
       style="fill:#ffffff;fill-opacity:1;fill-rule:nonzero;stroke:none"
       d="m 773.49,16.122 h 31.89 v 27.697 h -31.89 z" /><path
       id="path24"
       style="fill:#ffffff;fill-opacity:1;fill-rule:nonzero;stroke:none"
       d="m 71.945,520.206 h 427.4 v 39.07 h -427.4 z" /><g
       id="g32"
       clip-path="url(#clipPath36)"><g
         id="g38"
         transform="translate(521.0097,331.4004)"><path
           d="m 0,0 c 14.813,11.456 24.591,29.123 25.363,49.068 1.443,37.269 -29.077,67.798 -66.374,67.798 h -45.159 -27.088 -23.05 c -55.631,0 -101.822,-44.421 -102.331,-100.05 -0.513,-56.116 44.988,-101.932 100.987,-101.932 h 39.357 c 6.696,0 12.125,5.428 12.125,12.124 v 59.311 c 0,0.032 0.026,0.059 0.058,0.059 h 46.281 c 5.265,0 10.381,0.643 15.289,1.826 0.025,0.006 0.051,-0.005 0.064,-0.028 l 37.594,-67.569 c 2.139,-3.846 6.194,-6.23 10.595,-6.23 h 3.251 c 9.248,0 15.092,9.938 10.595,18.02 L -0.015,-0.074 C -0.029,-0.049 -0.023,-0.018 0,0 m -113.318,-58.027 h -23.037 c -40.498,0 -74.448,32.039 -75.186,72.531 -0.754,41.374 32.683,75.273 73.889,75.273 h 24.334 c 0.032,0 0.058,-0.027 0.058,-0.059 V -57.968 c 0,-0.033 -0.026,-0.059 -0.058,-0.059 m 72.62,71.494 H -86.11 c -0.032,0 -0.058,0.026 -0.058,0.059 v 76.192 c 0,0.032 0.026,0.059 0.058,0.059 h 46.279 c 21.404,0 38.748,-17.717 38.139,-39.255 C -2.279,29.737 -19.905,13.467 -40.698,13.467"
           style="fill:#050606;fill-opacity:1;fill-rule:nonzero;stroke:none"
           id="path40" /></g><g
         id="g42"
         transform="translate(286.9951,151.9874)"><path
           d="m 0,0 c 0,0.546 0.079,1.047 0.239,1.502 l 16.218,46.64 c 0.319,0.933 0.882,1.684 1.69,2.254 0.808,0.568 1.701,0.853 2.68,0.853 h 0.035 c 0.978,0 1.872,-0.279 2.68,-0.836 0.808,-0.559 1.371,-1.304 1.69,-2.237 1.206,-3.505 6.635,-19.052 16.286,-46.64 0.159,-0.478 0.239,-0.99 0.239,-1.536 0,-0.979 -0.285,-1.878 -0.853,-2.697 -0.57,-0.82 -1.321,-1.389 -2.254,-1.707 -0.546,-0.183 -1.058,-0.274 -1.536,-0.274 -0.956,0 -1.844,0.285 -2.663,0.854 -0.82,0.569 -1.4,1.332 -1.742,2.288 -0.409,1.183 -1.121,3.197 -2.134,6.043 -1.013,2.845 -1.792,5.064 -2.339,6.658 H 13.452 L 9.048,-1.536 C 8.729,-2.47 8.154,-3.227 7.324,-3.807 6.493,-4.387 5.588,-4.678 4.609,-4.678 4.154,-4.678 3.653,-4.587 3.107,-4.404 2.173,-4.063 1.422,-3.488 0.854,-2.68 0.284,-1.872 0,-0.979 0,0 m 16.696,20.486 h 8.297 c -1.389,3.983 -2.777,7.955 -4.166,11.916 z"
           style="fill:#050606;fill-opacity:1;fill-rule:nonzero;stroke:none"
           id="path44" /></g><g
         id="g46"
         transform="translate(385.1029,164.3985)"><path
           d="m 0,0 c -1.48,3.448 -2.219,7.073 -2.219,10.875 0,3.801 0.739,7.426 2.219,10.874 1.479,3.449 3.466,6.419 5.958,8.912 2.493,2.492 5.463,4.478 8.911,5.958 3.449,1.479 7.073,2.219 10.875,2.219 3.801,0 7.426,-0.74 10.875,-2.219 3.448,-1.48 6.419,-3.466 8.911,-5.958 2.493,-2.493 4.478,-5.463 5.958,-8.912 1.479,-3.448 2.219,-7.073 2.219,-10.874 0,-3.802 -0.74,-7.427 -2.219,-10.875 -1.48,-3.449 -3.465,-6.419 -5.958,-8.911 -2.492,-2.493 -5.463,-4.479 -8.911,-5.958 -3.449,-1.48 -7.074,-2.22 -10.875,-2.22 -3.802,0 -7.426,0.74 -10.875,2.22 -3.448,1.479 -6.418,3.465 -8.911,5.958 C 3.466,-6.419 1.479,-3.449 0,0 M 9.594,20.247 C 7.932,17.39 7.102,14.266 7.102,10.875 c 0,-3.392 0.83,-6.517 2.492,-9.373 1.662,-2.857 3.921,-5.116 6.778,-6.777 2.856,-1.662 5.98,-2.493 9.372,-2.493 3.391,0 6.515,0.831 9.372,2.493 2.857,1.661 5.116,3.92 6.778,6.777 1.661,2.856 2.492,5.981 2.492,9.373 0,3.391 -0.831,6.515 -2.492,9.372 -1.662,2.856 -3.921,5.116 -6.778,6.777 -2.857,1.662 -5.981,2.493 -9.372,2.493 -3.392,0 -6.516,-0.831 -9.372,-2.493 -2.857,-1.661 -5.116,-3.921 -6.778,-6.777"
           style="fill:#050606;fill-opacity:1;fill-rule:nonzero;stroke:none"
           id="path48" /></g><g
         id="g50"
         transform="translate(446.4169,151.9874)"><path
           d="m 0,0 v 46.606 c 0,1.274 0.461,2.367 1.383,3.277 0.922,0.911 2.019,1.366 3.295,1.366 1.274,0 2.367,-0.455 3.277,-1.366 0.91,-0.91 1.366,-2.003 1.366,-3.277 V 4.644 h 23.32 c 1.274,0 2.367,-0.456 3.278,-1.366 0.91,-0.911 1.365,-2.003 1.365,-3.278 0,-1.275 -0.455,-2.373 -1.365,-3.295 -0.911,-0.922 -2.004,-1.383 -3.278,-1.383 H 4.678 c -1.116,0 -2.174,0.449 -3.176,1.349 C 0.5,-2.43 0,-1.32 0,0"
           style="fill:#050606;fill-opacity:1;fill-rule:nonzero;stroke:none"
           id="path52" /></g><g
         id="g54"
         transform="translate(484.6768,189.5851)"><path
           d="m 0,0 v 8.734 c 0,1.263 0.457,2.347 1.371,3.25 0.914,0.902 2.003,1.354 3.267,1.354 1.263,0 2.347,-0.452 3.25,-1.354 C 8.79,11.081 9.242,9.997 9.242,8.734 V 0 C 9.242,-1.264 8.79,-2.347 7.888,-3.25 6.985,-4.153 5.901,-4.604 4.638,-4.604 3.374,-4.604 2.285,-4.153 1.371,-3.25 0.457,-2.347 0,-1.264 0,0"
           style="fill:#050606;fill-opacity:1;fill-rule:nonzero;stroke:none"
           id="path56" /></g><g
         id="g58"
         transform="translate(500.0477,164.3985)"><path
           d="m 0,0 c -1.48,3.448 -2.219,7.073 -2.219,10.875 0,3.801 0.739,7.426 2.219,10.874 1.479,3.449 3.466,6.419 5.958,8.912 2.493,2.492 5.463,4.478 8.911,5.958 3.449,1.479 7.073,2.219 10.875,2.219 3.801,0 7.426,-0.74 10.875,-2.219 3.448,-1.48 6.419,-3.466 8.911,-5.958 2.493,-2.493 4.478,-5.463 5.958,-8.912 1.479,-3.448 2.219,-7.073 2.219,-10.874 0,-3.802 -0.74,-7.427 -2.219,-10.875 -1.48,-3.449 -3.465,-6.419 -5.958,-8.911 -2.492,-2.493 -5.463,-4.479 -8.911,-5.958 -3.449,-1.48 -7.074,-2.22 -10.875,-2.22 -3.802,0 -7.426,0.74 -10.875,2.22 -3.448,1.479 -6.418,3.465 -8.911,5.958 C 3.466,-6.419 1.479,-3.449 0,0 M 9.594,20.247 C 7.932,17.39 7.102,14.266 7.102,10.875 c 0,-3.392 0.83,-6.517 2.492,-9.373 1.662,-2.857 3.921,-5.116 6.778,-6.777 2.856,-1.662 5.98,-2.493 9.372,-2.493 3.391,0 6.516,0.831 9.372,2.493 2.857,1.661 5.116,3.92 6.778,6.777 1.661,2.856 2.492,5.981 2.492,9.373 0,3.391 -0.831,6.515 -2.492,9.372 -1.662,2.856 -3.921,5.116 -6.778,6.777 -2.856,1.662 -5.981,2.493 -9.372,2.493 -3.392,0 -6.516,-0.831 -9.372,-2.493 -2.857,-1.661 -5.116,-3.921 -6.778,-6.777"
           style="fill:#050606;fill-opacity:1;fill-rule:nonzero;stroke:none"
           id="path60" /></g><g
         id="g62"
         transform="translate(378.4174,153.5104)"><path
           d="m 0,0 -9.617,17.284 c 3.938,3.33 6.292,8.122 6.491,13.273 0.192,4.964 -1.614,9.686 -5.087,13.295 -3.515,3.655 -8.451,5.75 -13.542,5.75 h -15.614 l -0.964,-0.004 v -0.091 c -2.075,-0.423 -3.641,-2.262 -3.641,-4.46 V -1.892 c 0,-2.51 2.042,-4.552 4.552,-4.552 1.661,0 3.186,0.902 3.988,2.356 0.403,0.657 0.616,1.413 0.616,2.187 v 14.846 h 11.377 c 1.201,0 2.407,0.12 3.591,0.357 l 9.667,-17.374 c 0.738,-1.327 2.14,-2.151 3.658,-2.151 h 0.866 c 1.5,0 2.849,0.772 3.61,2.065 C 0.711,-2.865 0.729,-1.311 0,0 m -12.246,31.008 c -0.068,-2.405 -1.089,-4.655 -2.874,-6.336 -1.778,-1.674 -4.105,-2.596 -6.551,-2.596 h -11.146 v 18.396 h 11.376 c 2.502,0 4.844,-0.991 6.593,-2.791 1.749,-1.799 2.673,-4.168 2.602,-6.673"
           style="fill:#050606;fill-opacity:1;fill-rule:nonzero;stroke:none"
           id="path64" /></g><g
         id="g66"
         transform="translate(603.5325,153.5104)"><path
           d="m 0,0 -9.617,17.284 c 3.938,3.33 6.292,8.122 6.491,13.273 0.192,4.964 -1.614,9.686 -5.087,13.295 -3.515,3.655 -8.451,5.75 -13.542,5.75 h -15.614 l -0.964,-0.004 v -0.091 c -2.075,-0.423 -3.641,-2.262 -3.641,-4.46 V -1.892 c 0,-2.51 2.042,-4.552 4.552,-4.552 1.661,0 3.186,0.902 3.988,2.356 0.403,0.657 0.616,1.413 0.616,2.187 v 14.846 h 11.377 c 1.201,0 2.407,0.12 3.591,0.357 l 9.667,-17.374 c 0.738,-1.327 2.14,-2.151 3.659,-2.151 h 0.865 c 1.5,0 2.849,0.772 3.61,2.065 C 0.711,-2.865 0.729,-1.311 0,0 m -12.246,31.008 c -0.068,-2.405 -1.089,-4.655 -2.874,-6.336 -1.778,-1.674 -4.105,-2.596 -6.551,-2.596 h -11.146 v 18.396 h 11.376 c 2.502,0 4.844,-0.991 6.593,-2.791 1.749,-1.799 2.673,-4.168 2.602,-6.673"
           style="fill:#050606;fill-opacity:1;fill-rule:nonzero;stroke:none"
           id="path68" /></g><g
         id="g70"
         transform="translate(237.8235,170.3297)"><path
           d="m 0,0 v 9.321 c 0,3.164 0.62,6.185 1.861,9.065 1.24,2.879 2.902,5.355 4.985,7.426 2.082,2.071 4.563,3.722 7.443,4.951 2.879,1.229 5.901,1.844 9.065,1.844 3.186,0 6.197,-0.603 9.031,-1.81 2.834,-1.206 5.32,-2.88 7.46,-5.019 0.888,-0.888 1.332,-1.992 1.332,-3.312 0,-1.297 -0.444,-2.39 -1.332,-3.277 -0.911,-0.911 -2.014,-1.366 -3.312,-1.366 -1.275,0 -2.367,0.455 -3.278,1.366 -2.731,2.731 -6.032,4.097 -9.901,4.097 -3.87,0 -7.176,-1.366 -9.919,-4.097 C 10.692,16.457 9.321,13.168 9.321,9.321 V 0 c 0,-3.87 1.371,-7.17 4.114,-9.902 2.743,-2.731 6.049,-4.097 9.919,-4.097 3.824,0 7.113,1.377 9.867,4.132 0.888,0.887 1.992,1.331 3.312,1.331 1.32,0 2.424,-0.444 3.312,-1.331 0.888,-0.888 1.332,-1.992 1.332,-3.312 0,-1.321 -0.444,-2.424 -1.332,-3.312 -2.14,-2.14 -4.626,-3.813 -7.46,-5.019 -2.834,-1.207 -5.845,-1.81 -9.031,-1.81 -3.164,0 -6.186,0.615 -9.065,1.844 -2.88,1.229 -5.361,2.885 -7.443,4.968 -2.083,2.082 -3.745,4.563 -4.985,7.443 C 0.62,-6.186 0,-3.164 0,0"
           style="fill:#050606;fill-opacity:1;fill-rule:nonzero;stroke:none"
           id="path72" /></g><g
         id="g74"
         transform="translate(743.1793,169.4983)"><path
           d="m 0,0 c 1.749,1.397 2.904,3.552 2.995,5.984 0.171,4.546 -3.434,8.269 -7.838,8.269 h -5.334 -3.199 -2.722 c -6.57,0 -12.025,-5.418 -12.085,-12.202 -0.06,-6.844 5.313,-12.432 11.927,-12.432 h 4.648 c 0.79,0 1.431,0.662 1.431,1.479 v 7.233 c 0,0.004 0.004,0.008 0.007,0.008 h 5.466 c 0.622,0 1.226,0.078 1.806,0.222 0.003,0.001 0.006,0 0.007,-0.003 l 4.44,-8.241 c 0.253,-0.469 0.732,-0.76 1.251,-0.76 h 0.384 c 1.092,0 1.782,1.212 1.251,2.198 l -4.437,8.236 C -0.003,-0.006 -0.003,-0.002 0,0 m -13.383,-7.077 h -2.72 c -4.783,0 -8.792,3.907 -8.88,8.846 -0.089,5.046 3.86,9.18 8.727,9.18 h 2.873 c 0.004,0 0.007,-0.003 0.007,-0.007 V -7.07 c 0,-0.004 -0.003,-0.007 -0.007,-0.007 m 8.577,8.719 h -5.363 c -0.004,0 -0.007,0.004 -0.007,0.008 v 9.292 c 0,0.004 0.003,0.007 0.007,0.007 h 5.465 c 2.528,0 4.576,-2.16 4.504,-4.787 -0.069,-2.535 -2.151,-4.52 -4.606,-4.52"
           style="fill:#050606;fill-opacity:1;fill-rule:nonzero;stroke:none"
           id="path76" /></g><g
         id="g78"
         transform="translate(715.5426,147.6169)"><path
           d="M 0,0 C 0,0.067 0.009,0.128 0.028,0.183 L 1.944,5.871 C 1.981,5.985 2.048,6.077 2.143,6.146 2.239,6.216 2.344,6.25 2.46,6.25 H 2.464 C 2.579,6.25 2.685,6.216 2.78,6.148 2.876,6.08 2.942,5.989 2.98,5.876 3.122,5.448 3.763,3.552 4.903,0.187 4.922,0.129 4.931,0.067 4.931,0 4.931,-0.119 4.898,-0.229 4.831,-0.329 4.763,-0.429 4.675,-0.498 4.565,-0.537 4.5,-0.559 4.44,-0.57 4.383,-0.57 4.27,-0.57 4.165,-0.536 4.069,-0.466 3.972,-0.397 3.903,-0.304 3.863,-0.187 3.815,-0.043 3.73,0.203 3.611,0.55 3.491,0.897 3.399,1.167 3.335,1.362 H 1.589 L 1.069,-0.187 C 1.031,-0.301 0.963,-0.393 0.865,-0.464 0.767,-0.535 0.66,-0.57 0.544,-0.57 c -0.053,0 -0.113,0.011 -0.177,0.033 -0.11,0.041 -0.199,0.112 -0.266,0.21 C 0.034,-0.228 0,-0.119 0,0 m 1.972,2.498 h 0.98 C 2.788,2.984 2.624,3.469 2.46,3.952 Z"
           style="fill:#050606;fill-opacity:1;fill-rule:nonzero;stroke:none"
           id="path80" /></g><g
         id="g82"
         transform="translate(727.129,149.1306)"><path
           d="m 0,0 c -0.175,0.421 -0.262,0.863 -0.262,1.326 0,0.464 0.087,0.906 0.262,1.327 0.175,0.42 0.409,0.782 0.704,1.086 0.294,0.304 0.645,0.547 1.052,0.727 0.407,0.18 0.835,0.271 1.284,0.271 0.449,0 0.877,-0.091 1.285,-0.271 C 4.732,4.286 5.083,4.043 5.377,3.739 5.671,3.435 5.906,3.073 6.081,2.653 6.255,2.232 6.343,1.79 6.343,1.326 6.343,0.863 6.255,0.421 6.081,0 5.906,-0.421 5.671,-0.783 5.377,-1.087 5.083,-1.391 4.732,-1.633 4.325,-1.813 3.917,-1.994 3.489,-2.084 3.04,-2.084 c -0.449,0 -0.877,0.09 -1.284,0.271 -0.407,0.18 -0.758,0.422 -1.052,0.726 C 0.409,-0.783 0.175,-0.421 0,0 M 1.133,2.469 C 0.937,2.121 0.839,1.74 0.839,1.326 c 0,-0.413 0.098,-0.794 0.294,-1.143 0.196,-0.348 0.463,-0.624 0.8,-0.826 0.338,-0.203 0.707,-0.304 1.107,-0.304 0.401,0 0.77,0.101 1.107,0.304 0.337,0.202 0.604,0.478 0.801,0.826 0.196,0.349 0.294,0.73 0.294,1.143 0,0.414 -0.098,0.795 -0.294,1.143 C 4.751,2.818 4.484,3.093 4.147,3.296 3.81,3.499 3.441,3.6 3.04,3.6 2.64,3.6 2.271,3.499 1.933,3.296 1.596,3.093 1.329,2.818 1.133,2.469"
           style="fill:#050606;fill-opacity:1;fill-rule:nonzero;stroke:none"
           id="path84" /></g><g
         id="g86"
         transform="translate(734.3701,147.6169)"><path
           d="M 0,0 V 5.684 C 0,5.839 0.054,5.973 0.163,6.084 0.272,6.195 0.402,6.25 0.552,6.25 0.703,6.25 0.832,6.195 0.94,6.084 1.047,5.973 1.101,5.839 1.101,5.684 V 0.566 H 3.855 C 4.005,0.566 4.134,0.511 4.242,0.4 4.349,0.289 4.403,0.155 4.403,0 4.403,-0.156 4.349,-0.289 4.242,-0.402 4.134,-0.514 4.005,-0.57 3.855,-0.57 H 0.552 c -0.131,0 -0.256,0.054 -0.375,0.164 C 0.059,-0.296 0,-0.161 0,0"
           style="fill:#050606;fill-opacity:1;fill-rule:nonzero;stroke:none"
           id="path88" /></g><g
         id="g90"
         transform="translate(738.8884,152.2023)"><path
           d="M 0,0 V 1.065 C 0,1.219 0.054,1.351 0.162,1.462 0.27,1.572 0.398,1.627 0.548,1.627 0.697,1.627 0.825,1.572 0.932,1.462 1.038,1.351 1.091,1.219 1.091,1.065 V 0 c 0,-0.154 -0.053,-0.286 -0.159,-0.396 -0.107,-0.11 -0.235,-0.165 -0.384,-0.165 -0.15,0 -0.278,0.055 -0.386,0.165 C 0.054,-0.286 0,-0.154 0,0"
           style="fill:#050606;fill-opacity:1;fill-rule:nonzero;stroke:none"
           id="path92" /></g><g
         id="g94"
         transform="translate(740.7037,149.1306)"><path
           d="m 0,0 c -0.175,0.421 -0.262,0.863 -0.262,1.326 0,0.464 0.087,0.906 0.262,1.327 0.175,0.42 0.409,0.782 0.704,1.086 0.294,0.304 0.645,0.547 1.052,0.727 0.407,0.18 0.835,0.271 1.284,0.271 0.449,0 0.877,-0.091 1.285,-0.271 C 4.732,4.286 5.083,4.043 5.377,3.739 5.671,3.435 5.906,3.073 6.081,2.653 6.255,2.232 6.343,1.79 6.343,1.326 6.343,0.863 6.255,0.421 6.081,0 5.906,-0.421 5.671,-0.783 5.377,-1.087 5.083,-1.391 4.732,-1.633 4.325,-1.813 3.917,-1.994 3.489,-2.084 3.04,-2.084 c -0.449,0 -0.877,0.09 -1.284,0.271 -0.407,0.18 -0.758,0.422 -1.052,0.726 C 0.409,-0.783 0.175,-0.421 0,0 M 1.133,2.469 C 0.937,2.121 0.839,1.74 0.839,1.326 c 0,-0.413 0.098,-0.794 0.294,-1.143 0.196,-0.348 0.463,-0.624 0.8,-0.826 0.338,-0.203 0.707,-0.304 1.107,-0.304 0.401,0 0.77,0.101 1.107,0.304 0.337,0.202 0.604,0.478 0.801,0.826 0.196,0.349 0.294,0.73 0.294,1.143 0,0.414 -0.098,0.795 -0.294,1.143 C 4.751,2.818 4.484,3.093 4.147,3.296 3.81,3.499 3.441,3.6 3.04,3.6 2.64,3.6 2.271,3.499 1.933,3.296 1.596,3.093 1.329,2.818 1.133,2.469"
           style="fill:#050606;fill-opacity:1;fill-rule:nonzero;stroke:none"
           id="path96" /></g><g
         id="g98"
         transform="translate(726.3394,147.8026)"><path
           d="m 0,0 -1.136,2.108 c 0.465,0.406 0.743,0.991 0.767,1.619 C -0.346,4.332 -0.56,4.908 -0.97,5.348 -1.385,5.794 -1.968,6.05 -2.569,6.05 H -4.413 L -4.527,6.049 V 6.038 C -4.772,5.986 -4.957,5.762 -4.957,5.494 v -5.725 c 0,-0.306 0.241,-0.555 0.538,-0.555 0.196,0 0.376,0.11 0.47,0.287 0.048,0.081 0.073,0.173 0.073,0.267 v 1.811 h 1.344 c 0.142,0 0.284,0.015 0.424,0.043 l 1.142,-2.119 c 0.087,-0.161 0.252,-0.262 0.432,-0.262 h 0.102 c 0.177,0 0.336,0.094 0.426,0.252 C 0.084,-0.349 0.086,-0.16 0,0 M -1.446,3.782 C -1.454,3.488 -1.575,3.214 -1.786,3.009 -1.996,2.805 -2.27,2.692 -2.559,2.692 h -1.317 v 2.244 h 1.344 c 0.295,0 0.572,-0.121 0.779,-0.34 0.206,-0.22 0.315,-0.509 0.307,-0.814"
           style="fill:#050606;fill-opacity:1;fill-rule:nonzero;stroke:none"
           id="path100" /></g><g
         id="g102"
         transform="translate(752.9251,147.8026)"><path
           d="m 0,0 -1.136,2.108 c 0.465,0.406 0.743,0.991 0.767,1.619 C -0.346,4.332 -0.56,4.908 -0.97,5.348 -1.385,5.794 -1.968,6.05 -2.569,6.05 H -4.413 L -4.527,6.049 V 6.038 C -4.772,5.986 -4.957,5.762 -4.957,5.494 v -5.725 c 0,-0.306 0.241,-0.555 0.538,-0.555 0.196,0 0.376,0.11 0.47,0.287 0.048,0.081 0.073,0.173 0.073,0.267 v 1.811 h 1.344 c 0.142,0 0.284,0.015 0.424,0.043 l 1.142,-2.119 c 0.087,-0.161 0.252,-0.262 0.432,-0.262 h 0.102 c 0.177,0 0.336,0.094 0.426,0.252 C 0.084,-0.349 0.086,-0.16 0,0 M -1.446,3.782 C -1.454,3.488 -1.575,3.214 -1.786,3.009 -1.996,2.805 -2.27,2.692 -2.559,2.692 h -1.317 v 2.244 h 1.344 c 0.295,0 0.572,-0.121 0.778,-0.34 0.207,-0.22 0.316,-0.509 0.308,-0.814"
           style="fill:#050606;fill-opacity:1;fill-rule:nonzero;stroke:none"
           id="path104" /></g><g
         id="g106"
         transform="translate(709.7355,149.8539)"><path
           d="M 0,0 V 1.137 C 0,1.523 0.073,1.891 0.22,2.242 0.366,2.594 0.562,2.895 0.808,3.148 1.054,3.401 1.347,3.602 1.687,3.752 2.028,3.902 2.384,3.977 2.758,3.977 3.134,3.977 3.49,3.903 3.825,3.756 4.159,3.609 4.453,3.405 4.706,3.144 4.81,3.036 4.863,2.901 4.863,2.74 4.863,2.582 4.81,2.448 4.706,2.34 4.598,2.229 4.468,2.174 4.315,2.174 4.164,2.174 4.035,2.229 3.927,2.34 3.605,2.673 3.215,2.84 2.758,2.84 2.301,2.84 1.911,2.673 1.587,2.34 1.263,2.007 1.101,1.606 1.101,1.137 V 0 c 0,-0.472 0.162,-0.875 0.486,-1.208 0.324,-0.333 0.714,-0.499 1.171,-0.499 0.452,0 0.84,0.168 1.165,0.504 0.105,0.108 0.236,0.162 0.392,0.162 0.155,0 0.286,-0.054 0.391,-0.162 C 4.81,-1.312 4.863,-1.446 4.863,-1.607 4.863,-1.768 4.81,-1.903 4.706,-2.011 4.453,-2.272 4.159,-2.476 3.825,-2.623 3.49,-2.771 3.134,-2.844 2.758,-2.844 c -0.374,0 -0.73,0.075 -1.071,0.225 -0.34,0.15 -0.633,0.352 -0.879,0.606 C 0.562,-1.759 0.366,-1.457 0.22,-1.106 0.073,-0.754 0,-0.386 0,0"
           style="fill:#050606;fill-opacity:1;fill-rule:nonzero;stroke:none"
           id="path108" /></g></g></g></svg>